<svg width="461" height="45" viewBox="0 0 461 45" fill="none" xmlns="http://www.w3.org/2000/svg">
<path d="M348.393 44.672C346.985 44.672 346.217 43.84 346.473 42.368L353.705 2.752C353.833 1.728 354.601 1.344 355.305 1.344C356.201 1.344 356.585 1.472 357.097 2.368L370.985 30.528L384.809 2.496C385.257 1.664 385.897 1.344 386.729 1.344C387.497 1.344 388.265 1.728 388.521 2.944L395.625 42.368C395.881 43.84 395.177 44.672 393.705 44.672H391.209C389.929 44.672 389.161 44.032 388.905 42.752L384.489 17.664L372.457 41.792C372.137 42.432 371.817 42.816 371.049 42.816C370.217 42.816 369.961 42.368 369.641 41.664L357.673 17.728L353.193 42.752C352.937 44.032 352.169 44.672 350.889 44.672H348.393Z" fill="white"/>
<path d="M305.159 44.672C303.815 44.672 303.367 43.648 303.815 42.688L322.759 1.92C323.143 1.088 323.527 0.767998 324.423 0.767998C325.319 0.767998 325.703 1.024 326.087 1.92L345.095 42.688C345.543 43.648 345.095 44.672 343.751 44.672H340.423C339.271 44.672 338.375 44.16 337.927 43.072L334.279 34.944H314.375L310.727 43.072C310.215 44.16 309.383 44.672 308.231 44.672H305.159ZM317.127 28.8H331.463L324.359 12.928L317.127 28.8Z" fill="white"/>
<path d="M301.072 43.008C300.688 44.16 299.92 44.672 298.704 44.672H276.944C275.792 44.672 275.088 44.032 275.088 42.88V3.136C275.088 1.984 275.792 1.344 276.944 1.344H299.472C300.688 1.344 301.392 2.048 301.392 3.264V5.632C301.392 6.848 300.688 7.552 299.472 7.552H281.744V19.584H298.384C299.6 19.584 300.304 20.288 300.304 21.504V23.808C300.304 25.024 299.6 25.728 298.384 25.728H281.744V38.464H300.176C301.52 38.464 302.16 39.36 301.776 40.64L301.072 43.008Z" fill="white"/>
<path d="M241.258 44.672C240.042 44.672 239.338 43.968 239.338 42.752V3.264C239.338 2.048 240.042 1.344 241.258 1.344H254.634C263.53 1.344 268.842 7.104 268.842 14.912C268.842 20.544 265.13 25.728 259.37 26.944L268.842 42.368C269.61 43.648 269.098 44.672 267.562 44.672H264.362C263.338 44.672 262.57 44.288 262.058 43.392L250.538 24.448C249.77 23.168 250.282 22.144 251.818 22.144H254.058C259.498 22.144 262.186 18.752 262.186 14.912C262.186 10.752 259.178 7.552 254.634 7.552H245.994V42.752C245.994 43.968 245.29 44.672 244.074 44.672H241.258Z" fill="white"/>
<path d="M217.18 44.672C215.964 44.672 215.26 43.968 215.26 42.752V7.616H204.316C203.1 7.616 202.396 6.912 202.396 5.696V3.264C202.396 2.048 203.1 1.344 204.316 1.344H232.796C234.012 1.344 234.716 2.048 234.716 3.264V5.696C234.716 6.912 234.012 7.616 232.796 7.616H221.852V42.752C221.852 43.968 221.148 44.672 219.932 44.672H217.18Z" fill="white"/>
<path d="M182.926 44.672C181.902 44.672 181.198 44.16 180.942 43.2L180.11 40.576C179.726 39.232 180.366 38.4 181.71 38.4H185.934C190.222 38.4 197.07 36.16 197.07 29.312C197.07 25.792 195.598 23.168 189.902 17.984C183.95 12.608 180.686 9.088 180.686 3.2C180.622 1.984 181.39 1.344 182.606 1.344H186.062C187.342 1.344 187.854 2.048 187.918 3.328C187.918 7.04 190.094 9.216 194.958 13.632C201.102 19.328 204.046 23.68 204.046 29.12C204.046 38.528 197.006 44.672 185.998 44.672H182.926Z" fill="white"/>
<path d="M175.135 43.008C174.751 44.16 173.983 44.672 172.767 44.672H151.007C149.855 44.672 149.151 44.032 149.151 42.88V3.136C149.151 1.984 149.855 1.344 151.007 1.344H173.535C174.751 1.344 175.455 2.048 175.455 3.264V5.632C175.455 6.848 174.751 7.552 173.535 7.552H155.807V19.584H172.447C173.663 19.584 174.367 20.288 174.367 21.504V23.808C174.367 25.024 173.663 25.728 172.447 25.728H155.807V38.464H174.239C175.583 38.464 176.223 39.36 175.839 40.64L175.135 43.008Z" fill="white"/>
<path d="M115.321 44.672C114.105 44.672 113.401 43.968 113.401 42.752V3.264C113.401 2.048 114.105 1.344 115.321 1.344H128.697C137.593 1.344 142.905 7.104 142.905 14.912C142.905 20.544 139.193 25.728 133.433 26.944L142.905 42.368C143.673 43.648 143.161 44.672 141.625 44.672H138.425C137.401 44.672 136.633 44.288 136.121 43.392L124.601 24.448C123.833 23.168 124.345 22.144 125.881 22.144H128.121C133.561 22.144 136.249 18.752 136.249 14.912C136.249 10.752 133.241 7.552 128.697 7.552H120.057V42.752C120.057 43.968 119.353 44.672 118.137 44.672H115.321Z" fill="white"/>
<path d="M69.8467 44.672C68.5027 44.672 68.0547 43.648 68.5027 42.688L87.4467 1.92C87.8307 1.088 88.2147 0.767998 89.1107 0.767998C90.0067 0.767998 90.3907 1.024 90.7747 1.92L109.783 42.688C110.231 43.648 109.783 44.672 108.439 44.672H105.111C103.959 44.672 103.063 44.16 102.615 43.072L98.9667 34.944H79.0627L75.4147 43.072C74.9027 44.16 74.0707 44.672 72.9187 44.672H69.8467ZM81.8147 28.8H96.1507L89.0467 12.928L81.8147 28.8Z" fill="white"/>
<path d="M35.8067 42.752C35.8067 43.968 35.1027 44.672 33.8867 44.672H31.1347C29.9187 44.672 29.2147 43.968 29.2147 42.752V3.264C29.2147 2.048 29.9187 1.344 31.1347 1.344H33.8867C35.1027 1.344 35.8067 2.048 35.8067 3.264V19.648H58.0147V3.264C58.0147 2.048 58.7187 1.344 59.9347 1.344H62.7507C63.9667 1.344 64.6707 2.048 64.6707 3.264V42.752C64.6707 43.968 63.9667 44.672 62.7507 44.672H59.9347C58.7187 44.672 58.0147 43.968 58.0147 42.752V25.92H35.8067V42.752Z" fill="white"/>
<path d="M2.92621 44.672C1.90221 44.672 1.19821 44.16 0.942208 43.2L0.110208 40.576C-0.273792 39.232 0.366208 38.4 1.71021 38.4H5.93421C10.2222 38.4 17.0702 36.16 17.0702 29.312C17.0702 25.792 15.5982 23.168 9.90221 17.984C3.95021 12.608 0.686208 9.088 0.686208 3.2C0.622208 1.984 1.39021 1.344 2.60621 1.344H6.06221C7.34221 1.344 7.85421 2.048 7.91821 3.328C7.91821 7.04 10.0942 9.216 14.9582 13.632C21.1022 19.328 24.0462 23.68 24.0462 29.12C24.0462 38.528 17.0062 44.672 5.99821 44.672H2.92621Z" fill="white"/>
<path d="M421.59 44.544L421.974 0L460.182 22.272L421.59 44.544Z" fill="#FF009A"/>
</svg>
